<svg width="476" height="70" viewBox="0 0 476 70" fill="none" xmlns="http://www.w3.org/2000/svg">
<path d="M76 57.3182V18.5303H89.0903C92.1169 18.5303 94.6013 19.048 96.5434 20.0833C98.4855 21.1061 99.9231 22.5139 100.856 24.3068C101.79 26.0997 102.256 28.1389 102.256 30.4242C102.256 32.7096 101.79 34.7361 100.856 36.5038C99.9231 38.2715 98.4918 39.6604 96.5623 40.6705C94.6328 41.6679 92.1673 42.1667 89.1659 42.1667H78.5727V37.9242H89.0146C91.0828 37.9242 92.7475 37.6212 94.0086 37.0152C95.2823 36.4091 96.2029 35.5505 96.7704 34.4394C97.3505 33.3157 97.6405 31.9773 97.6405 30.4242C97.6405 28.8712 97.3505 27.5139 96.7704 26.3523C96.1903 25.1907 95.2634 24.2942 93.9896 23.6629C92.7159 23.0189 91.0324 22.697 88.9389 22.697H80.6913V57.3182H76ZM94.2356 39.8939L103.77 57.3182H98.3215L88.9389 39.8939H94.2356Z" fill="url(#paint0_linear_8_94)"/>
<path d="M110.073 57.3182V18.5303H133.454V22.697H114.765V35.803H132.244V39.9697H114.765V53.1515H133.757V57.3182H110.073Z" fill="url(#paint1_linear_8_94)"/>
<path d="M163.097 28.2273C162.87 26.3081 161.949 24.8182 160.335 23.7576C158.721 22.697 156.741 22.1667 154.395 22.1667C152.68 22.1667 151.179 22.4444 149.893 23C148.619 23.5556 147.623 24.3194 146.904 25.2917C146.198 26.2639 145.845 27.3687 145.845 28.6061C145.845 29.6414 146.091 30.5316 146.582 31.2765C147.087 32.0088 147.73 32.6212 148.512 33.1136C149.294 33.5934 150.113 33.9912 150.971 34.3068C151.829 34.6098 152.617 34.8561 153.336 35.0455L157.27 36.1061C158.279 36.3712 159.402 36.7374 160.637 37.2045C161.886 37.6717 163.078 38.3093 164.213 39.1174C165.36 39.9129 166.306 40.9356 167.05 42.1856C167.794 43.4356 168.166 44.9697 168.166 46.7879C168.166 48.8838 167.618 50.7778 166.52 52.4697C165.436 54.1616 163.847 55.5063 161.753 56.5038C159.673 57.5013 157.144 58 154.168 58C151.394 58 148.991 57.5518 146.961 56.6553C144.943 55.7588 143.354 54.5088 142.194 52.9053C141.046 51.3018 140.397 49.4394 140.245 47.3182H145.088C145.214 48.7828 145.706 49.9949 146.563 50.9545C147.434 51.9015 148.531 52.6086 149.855 53.0758C151.192 53.5303 152.629 53.7576 154.168 53.7576C155.959 53.7576 157.567 53.4672 158.992 52.8864C160.417 52.2929 161.545 51.4722 162.378 50.4242C163.21 49.3636 163.626 48.1263 163.626 46.7121C163.626 45.4242 163.267 44.3763 162.548 43.5682C161.829 42.7601 160.883 42.1035 159.71 41.5985C158.538 41.0934 157.27 40.6515 155.908 40.2727L151.141 38.9091C148.115 38.0379 145.719 36.7942 143.953 35.178C142.187 33.5619 141.305 31.447 141.305 28.8333C141.305 26.6616 141.891 24.7677 143.064 23.1515C144.249 21.5227 145.838 20.2601 147.831 19.3636C149.836 18.4545 152.074 18 154.546 18C157.043 18 159.263 18.4482 161.205 19.3447C163.147 20.2285 164.686 21.4407 165.821 22.9811C166.968 24.5215 167.573 26.2702 167.637 28.2273H163.097Z" fill="url(#paint2_linear_8_94)"/>
<path d="M201.303 18.5303H205.995V44.2121C205.995 46.8636 205.37 49.2311 204.122 51.3144C202.886 53.3851 201.139 55.0202 198.882 56.2197C196.625 57.4066 193.976 58 190.937 58C187.898 58 185.249 57.4066 182.992 56.2197C180.735 55.0202 178.982 53.3851 177.733 51.3144C176.497 49.2311 175.879 46.8636 175.879 44.2121V18.5303H180.571V43.8333C180.571 45.7273 180.987 47.4129 181.819 48.8902C182.652 50.3548 183.837 51.5101 185.376 52.3561C186.927 53.1894 188.78 53.6061 190.937 53.6061C193.093 53.6061 194.947 53.1894 196.498 52.3561C198.05 51.5101 199.235 50.3548 200.055 48.8902C200.887 47.4129 201.303 45.7273 201.303 43.8333V18.5303Z" fill="url(#paint3_linear_8_94)"/>
<path d="M215.363 18.5303H220.962L234.128 50.7273H234.582L247.748 18.5303H253.347V57.3182H248.959V27.8485H248.58L236.474 57.3182H232.237L220.13 27.8485H219.752V57.3182H215.363V18.5303Z" fill="url(#paint4_linear_8_94)"/>
<path d="M262.754 57.3182V18.5303H286.135V22.697H267.445V35.803H284.924V39.9697H267.445V53.1515H286.437V57.3182H262.754Z" fill="url(#paint5_linear_8_94)"/>
<path d="M309.572 18.5303H315.171L328.337 50.7273H328.791L341.957 18.5303H347.557V57.3182H343.168V27.8485H342.79L330.683 57.3182H326.446L314.339 27.8485H313.961V57.3182H309.572V18.5303Z" fill="url(#paint6_linear_8_94)"/>
<path d="M358.552 57.3182H353.634L367.859 18.5303H372.701L386.927 57.3182H382.008L370.431 24.6667H370.129L358.552 57.3182ZM360.368 42.1667H380.192V46.3333H360.368V42.1667Z" fill="url(#paint7_linear_8_94)"/>
<path d="M417.624 30.6515C417.207 29.3763 416.659 28.2336 415.978 27.2235C415.309 26.2008 414.509 25.3295 413.575 24.6098C412.655 23.8902 411.608 23.3409 410.435 22.9621C409.262 22.5833 407.976 22.3939 406.576 22.3939C404.281 22.3939 402.194 22.9874 400.315 24.1742C398.436 25.3611 396.941 27.1098 395.832 29.4205C394.722 31.7311 394.167 34.5657 394.167 37.9242C394.167 41.2828 394.728 44.1174 395.851 46.428C396.973 48.7386 398.493 50.4874 400.409 51.6742C402.326 52.8611 404.483 53.4545 406.879 53.4545C409.098 53.4545 411.053 52.9811 412.743 52.0341C414.446 51.0745 415.77 49.7235 416.716 47.9811C417.674 46.226 418.153 44.1616 418.153 41.7879L419.591 42.0909H407.938V37.9242H422.693V42.0909C422.693 45.2854 422.012 48.0631 420.65 50.4242C419.301 52.7854 417.434 54.6162 415.051 55.9167C412.68 57.2045 409.956 57.8485 406.879 57.8485C403.449 57.8485 400.435 57.0404 397.837 55.4242C395.252 53.8081 393.234 51.5101 391.784 48.5303C390.346 45.5505 389.627 42.0152 389.627 37.9242C389.627 34.8561 390.037 32.0972 390.857 29.6477C391.689 27.1856 392.862 25.0896 394.375 23.3598C395.888 21.6301 397.679 20.3043 399.747 19.3826C401.816 18.4609 404.092 18 406.576 18C408.619 18 410.523 18.3093 412.289 18.928C414.067 19.5341 415.65 20.399 417.037 21.5227C418.437 22.6338 419.603 23.9659 420.537 25.5189C421.47 27.0593 422.113 28.7702 422.466 30.6515H417.624Z" fill="url(#paint8_linear_8_94)"/>
<path d="M435.419 18.5303V57.3182H430.728V18.5303H435.419Z" fill="url(#paint9_linear_8_94)"/>
<path d="M476 30.6515H471.309C471.031 29.3005 470.546 28.1136 469.852 27.0909C469.171 26.0682 468.339 25.2096 467.355 24.5152C466.384 23.8081 465.306 23.2778 464.12 22.9242C462.935 22.5707 461.699 22.3939 460.413 22.3939C458.067 22.3939 455.942 22.9874 454.038 24.1742C452.146 25.3611 450.639 27.1098 449.517 29.4205C448.407 31.7311 447.852 34.5657 447.852 37.9242C447.852 41.2828 448.407 44.1174 449.517 46.428C450.639 48.7386 452.146 50.4874 454.038 51.6742C455.942 52.8611 458.067 53.4545 460.413 53.4545C461.699 53.4545 462.935 53.2778 464.12 52.9242C465.306 52.5707 466.384 52.0467 467.355 51.3523C468.339 50.6452 469.171 49.7803 469.852 48.7576C470.546 47.7222 471.031 46.5354 471.309 45.197H476C475.647 47.1793 475.004 48.9533 474.07 50.5189C473.137 52.0846 471.977 53.4167 470.59 54.5152C469.203 55.601 467.645 56.428 465.917 56.9962C464.202 57.5644 462.367 57.8485 460.413 57.8485C457.109 57.8485 454.17 57.0404 451.598 55.4242C449.025 53.8081 447.001 51.5101 445.525 48.5303C444.05 45.5505 443.312 42.0152 443.312 37.9242C443.312 33.8333 444.05 30.298 445.525 27.3182C447.001 24.3384 449.025 22.0404 451.598 20.4242C454.17 18.8081 457.109 18 460.413 18C462.367 18 464.202 18.2841 465.917 18.8523C467.645 19.4205 469.203 20.2538 470.59 21.3523C471.977 22.4381 473.137 23.7639 474.07 25.3295C475.004 26.8826 475.647 28.6566 476 30.6515Z" fill="url(#paint10_linear_8_94)"/>
<rect x="6" y="5" width="55" height="65" rx="10" fill="#CB37D8"/>
<rect width="55" height="65" rx="10" fill="#75B5DA"/>
<path d="M14.0168 45H11L19.7254 21H22.6957L31.4211 45H28.4044L21.3034 24.7969H21.1177L14.0168 45ZM15.1306 35.625H27.2905V38.2031H15.1306V35.625Z" fill="white"/>
<path d="M38 21V45H35.1225V21H38Z" fill="white"/>
<defs>
<linearGradient id="paint0_linear_8_94" x1="76" y1="38" x2="476" y2="38" gradientUnits="userSpaceOnUse">
<stop stop-color="#74B6DA"/>
<stop offset="1" stop-color="#D030D8"/>
</linearGradient>
<linearGradient id="paint1_linear_8_94" x1="76" y1="38" x2="476" y2="38" gradientUnits="userSpaceOnUse">
<stop stop-color="#74B6DA"/>
<stop offset="1" stop-color="#D030D8"/>
</linearGradient>
<linearGradient id="paint2_linear_8_94" x1="76" y1="38" x2="476" y2="38" gradientUnits="userSpaceOnUse">
<stop stop-color="#74B6DA"/>
<stop offset="1" stop-color="#D030D8"/>
</linearGradient>
<linearGradient id="paint3_linear_8_94" x1="76" y1="38" x2="476" y2="38" gradientUnits="userSpaceOnUse">
<stop stop-color="#74B6DA"/>
<stop offset="1" stop-color="#D030D8"/>
</linearGradient>
<linearGradient id="paint4_linear_8_94" x1="76" y1="38" x2="476" y2="38" gradientUnits="userSpaceOnUse">
<stop stop-color="#74B6DA"/>
<stop offset="1" stop-color="#D030D8"/>
</linearGradient>
<linearGradient id="paint5_linear_8_94" x1="76" y1="38" x2="476" y2="38" gradientUnits="userSpaceOnUse">
<stop stop-color="#74B6DA"/>
<stop offset="1" stop-color="#D030D8"/>
</linearGradient>
<linearGradient id="paint6_linear_8_94" x1="76" y1="38" x2="476" y2="38" gradientUnits="userSpaceOnUse">
<stop stop-color="#74B6DA"/>
<stop offset="1" stop-color="#D030D8"/>
</linearGradient>
<linearGradient id="paint7_linear_8_94" x1="76" y1="38" x2="476" y2="38" gradientUnits="userSpaceOnUse">
<stop stop-color="#74B6DA"/>
<stop offset="1" stop-color="#D030D8"/>
</linearGradient>
<linearGradient id="paint8_linear_8_94" x1="76" y1="38" x2="476" y2="38" gradientUnits="userSpaceOnUse">
<stop stop-color="#74B6DA"/>
<stop offset="1" stop-color="#D030D8"/>
</linearGradient>
<linearGradient id="paint9_linear_8_94" x1="76" y1="38" x2="476" y2="38" gradientUnits="userSpaceOnUse">
<stop stop-color="#74B6DA"/>
<stop offset="1" stop-color="#D030D8"/>
</linearGradient>
<linearGradient id="paint10_linear_8_94" x1="76" y1="38" x2="476" y2="38" gradientUnits="userSpaceOnUse">
<stop stop-color="#74B6DA"/>
<stop offset="1" stop-color="#D030D8"/>
</linearGradient>
</defs>
</svg>
